<svg xmlns="http://www.w3.org/2000/svg" viewBox="0 0 512 512">
  <defs>
    <linearGradient id="bgGrad" x1="0%" y1="0%" x2="100%" y2="100%">
      <stop offset="0%" style="stop-color:#eb6b42"/>
      <stop offset="100%" style="stop-color:#d84f28"/>
    </linearGradient>
  </defs>
  <!-- Background circle -->
  <circle cx="256" cy="256" r="240" fill="url(#bgGrad)"/>
  <!-- Airplane icon -->
  <g transform="translate(256, 256) rotate(-45) translate(-256, -256)">
    <path d="M416 160l-64 64-96-32-96 32-64-64 32-32 64 32 64-64V64l32-32 32 32v32l64 64z" fill="#ffffff" transform="translate(24, 80)"/>
    <path d="M352 352l-64-64 32-96-32-96 64-64 32 32-32 64 64 64h32l32 32-32 32h-32l-64 64z" fill="#ffffff" transform="translate(-56, 104)"/>
  </g>
  <!-- Stylized W for WeTravel -->
  <text x="256" y="300" font-family="Arial, sans-serif" font-size="180" font-weight="bold" fill="#ffffff" text-anchor="middle">W</text>
</svg>
