<svg xmlns="http://www.w3.org/2000/svg" viewBox="0 0 32 32">
  <defs>
    <linearGradient id="bg" x1="0%" y1="0%" x2="100%" y2="100%">
      <stop offset="0%" style="stop-color:#0c8ee6"/>
      <stop offset="100%" style="stop-color:#015a9f"/>
    </linearGradient>
  </defs>
  <circle cx="16" cy="16" r="15" fill="url(#bg)"/>
  <!-- Simplified airplane -->
  <g transform="translate(16, 14) rotate(-30) scale(0.35)">
    <path d="M -20 60 L -20 20 L -80 -40 L -80 -55 L -20 -10 L -20 -60 L -45 -80 L -45 -95 L -10 -75 L 0 -80 L 10 -75 L 45 -95 L 45 -80 L 20 -60 L 20 -10 L 80 -55 L 80 -40 L 20 20 L 20 60 L 0 75 Z" fill="#eb6b42"/>
  </g>
  <!-- W path -->
  <path d="M 8 24 L 11 19 L 14 22 L 16 17 L 18 22 L 21 19 L 24 24" 
        fill="none" stroke="white" stroke-width="2" stroke-linecap="round" stroke-linejoin="round"/>
</svg>
