<svg xmlns="http://www.w3.org/2000/svg" viewBox="0 0 512 512">
  <defs>
    <linearGradient id="grad1" x1="0%" y1="0%" x2="100%" y2="100%">
      <stop offset="0%" style="stop-color:#0c8ee6;stop-opacity:1" />
      <stop offset="100%" style="stop-color:#015a9f;stop-opacity:1" />
    </linearGradient>
    <linearGradient id="grad2" x1="0%" y1="0%" x2="100%" y2="100%">
      <stop offset="0%" style="stop-color:#eb6b42;stop-opacity:1" />
      <stop offset="100%" style="stop-color:#d84f28;stop-opacity:1" />
    </linearGradient>
  </defs>
  <!-- Background circle -->
  <circle cx="256" cy="256" r="240" fill="url(#grad1)"/>
  <!-- Globe lines -->
  <ellipse cx="256" cy="256" rx="160" ry="160" fill="none" stroke="rgba(255,255,255,0.2)" stroke-width="8"/>
  <ellipse cx="256" cy="256" rx="80" ry="160" fill="none" stroke="rgba(255,255,255,0.2)" stroke-width="8"/>
  <line x1="96" y1="256" x2="416" y2="256" stroke="rgba(255,255,255,0.2)" stroke-width="8"/>
  <path d="M 120 180 Q 256 220 392 180" fill="none" stroke="rgba(255,255,255,0.2)" stroke-width="8"/>
  <path d="M 120 332 Q 256 292 392 332" fill="none" stroke="rgba(255,255,255,0.2)" stroke-width="8"/>
  <!-- Airplane -->
  <g transform="translate(256, 256) rotate(-30)">
    <path d="M -20 60 L -20 20 L -80 -40 L -80 -55 L -20 -10 L -20 -60 L -45 -80 L -45 -95 L -10 -75 L 0 -80 L 10 -75 L 45 -95 L 45 -80 L 20 -60 L 20 -10 L 80 -55 L 80 -40 L 20 20 L 20 60 L 0 75 Z" fill="url(#grad2)"/>
  </g>
  <!-- W letter hint with travel path -->
  <path d="M 140 380 L 180 320 L 220 360 L 256 300 L 292 360 L 332 320 L 372 380" 
        fill="none" stroke="white" stroke-width="16" stroke-linecap="round" stroke-linejoin="round"/>
</svg>
