<svg xmlns="http://www.w3.org/2000/svg" viewBox="0 0 512 512">
  <defs>
    <linearGradient id="bgGrad" x1="0%" y1="0%" x2="100%" y2="100%">
      <stop offset="0%" style="stop-color:#0c8ee6"/>
      <stop offset="100%" style="stop-color:#015a9f"/>
    </linearGradient>
    <linearGradient id="planeGrad" x1="0%" y1="0%" x2="100%" y2="100%">
      <stop offset="0%" style="stop-color:#ffffff"/>
      <stop offset="100%" style="stop-color:#e0effe"/>
    </linearGradient>
  </defs>
  <!-- Background circle -->
  <circle cx="256" cy="256" r="256" fill="url(#bgGrad)"/>
  <!-- Globe lines -->
  <ellipse cx="256" cy="256" rx="140" ry="140" fill="none" stroke="#ffffff" stroke-width="8" opacity="0.3"/>
  <ellipse cx="256" cy="256" rx="140" ry="70" fill="none" stroke="#ffffff" stroke-width="6" opacity="0.25"/>
  <line x1="116" y1="256" x2="396" y2="256" stroke="#ffffff" stroke-width="6" opacity="0.25"/>
  <line x1="256" y1="116" x2="256" y2="396" stroke="#ffffff" stroke-width="6" opacity="0.25"/>
  <!-- Airplane -->
  <g transform="translate(256, 256) rotate(-45) translate(-256, -256)">
    <path d="M380 180 L340 220 L280 200 L200 280 L220 340 L180 380 L160 360 L170 300 L130 260 L90 270 L80 240 L160 200 L200 130 L230 140 L220 180 L280 140 L320 100 L360 100 L380 120 L380 180Z" 
          fill="url(#planeGrad)" 
          stroke="#ffffff" 
          stroke-width="4"/>
    <!-- Plane trail -->
    <circle cx="100" cy="260" r="8" fill="#ffffff" opacity="0.6"/>
    <circle cx="70" cy="290" r="6" fill="#ffffff" opacity="0.4"/>
    <circle cx="50" cy="310" r="4" fill="#ffffff" opacity="0.2"/>
  </g>
  <!-- Location pin accent -->
  <g transform="translate(340, 340)">
    <path d="M0 -40 C22 -40 40 -22 40 0 C40 22 0 60 0 60 C0 60 -40 22 -40 0 C-40 -22 -22 -40 0 -40Z" 
          fill="#eb6b42" 
          stroke="#ffffff" 
          stroke-width="4"/>
    <circle cx="0" cy="-5" r="12" fill="#ffffff"/>
  </g>
</svg>
