<svg xmlns="http://www.w3.org/2000/svg" viewBox="0 0 512 512">
  <defs>
    <linearGradient id="bgGrad" x1="0%" y1="0%" x2="100%" y2="100%">
      <stop offset="0%" style="stop-color:#0c8ee6"/>
      <stop offset="100%" style="stop-color:#064c83"/>
    </linearGradient>
    <linearGradient id="accentGrad" x1="0%" y1="0%" x2="100%" y2="100%">
      <stop offset="0%" style="stop-color:#eb6b42"/>
      <stop offset="100%" style="stop-color:#d84f28"/>
    </linearGradient>
  </defs>
  <!-- Background circle -->
  <circle cx="256" cy="256" r="240" fill="url(#bgGrad)"/>
  <!-- Globe lines -->
  <ellipse cx="256" cy="256" rx="160" ry="160" fill="none" stroke="rgba(255,255,255,0.2)" stroke-width="3"/>
  <ellipse cx="256" cy="256" rx="80" ry="160" fill="none" stroke="rgba(255,255,255,0.2)" stroke-width="3"/>
  <ellipse cx="256" cy="256" rx="160" ry="80" fill="none" stroke="rgba(255,255,255,0.2)" stroke-width="3"/>
  <line x1="96" y1="256" x2="416" y2="256" stroke="rgba(255,255,255,0.2)" stroke-width="3"/>
  <line x1="256" y1="96" x2="256" y2="416" stroke="rgba(255,255,255,0.2)" stroke-width="3"/>
  <!-- Airplane -->
  <g transform="translate(256, 256) rotate(-30)">
    <path d="M-20,-80 L20,-80 L40,0 L100,20 L100,40 L40,30 L30,80 L50,100 L50,115 L20,100 L0,115 L-20,100 L-50,115 L-50,100 L-30,80 L-40,30 L-100,40 L-100,20 L-40,0 Z" fill="white"/>
  </g>
  <!-- Location pin accent -->
  <g transform="translate(340, 340)">
    <path d="M0,-50 C22,-50 40,-32 40,-10 C40,15 0,50 0,50 C0,50 -40,15 -40,-10 C-40,-32 -22,-50 0,-50 Z" fill="url(#accentGrad)"/>
    <circle cx="0" cy="-10" r="15" fill="white"/>
  </g>
</svg>
