<svg xmlns="http://www.w3.org/2000/svg" viewBox="0 0 512 512">
  <defs>
    <linearGradient id="skyGradient" x1="0%" y1="0%" x2="0%" y2="100%">
      <stop offset="0%" style="stop-color:#0c8ee6;stop-opacity:1" />
      <stop offset="100%" style="stop-color:#36aaf5;stop-opacity:1" />
    </linearGradient>
    <linearGradient id="planeGradient" x1="0%" y1="0%" x2="100%" y2="100%">
      <stop offset="0%" style="stop-color:#ffffff;stop-opacity:1" />
      <stop offset="100%" style="stop-color:#e0effe;stop-opacity:1" />
    </linearGradient>
  </defs>
  <!-- Circle background -->
  <circle cx="256" cy="256" r="240" fill="url(#skyGradient)"/>
  <!-- Airplane icon -->
  <g transform="translate(256, 256) rotate(-45) translate(-24, -24) scale(8)">
    <path fill="url(#planeGradient)" d="M21.8,4.2c-0.5-0.5-1.3-0.8-2-0.8c-0.6,0-1.1,0.2-1.5,0.5L14,8.3L6,5v2l8,4.5v4l-3,1.5v2l4-1l4,1v-2l-3-1.5v-4L24,6C24.6,5.5,24,4.3,21.8,4.2z"/>
  </g>
  <!-- Globe lines for travel theme -->
  <ellipse cx="256" cy="256" rx="180" ry="180" fill="none" stroke="rgba(255,255,255,0.15)" stroke-width="2"/>
  <ellipse cx="256" cy="256" rx="180" ry="80" fill="none" stroke="rgba(255,255,255,0.15)" stroke-width="2"/>
  <ellipse cx="256" cy="256" rx="80" ry="180" fill="none" stroke="rgba(255,255,255,0.15)" stroke-width="2"/>
</svg>
