<svg xmlns="http://www.w3.org/2000/svg" viewBox="0 0 512 512">
  <defs>
    <linearGradient id="globeGradient" x1="0%" y1="0%" x2="100%" y2="100%">
      <stop offset="0%" style="stop-color:#36aaf5"/>
      <stop offset="100%" style="stop-color:#015a9f"/>
    </linearGradient>
    <linearGradient id="planeGradient" x1="0%" y1="0%" x2="100%" y2="100%">
      <stop offset="0%" style="stop-color:#f48c6a"/>
      <stop offset="100%" style="stop-color:#eb6b42"/>
    </linearGradient>
  </defs>
  
  <!-- Background circle -->
  <circle cx="256" cy="256" r="240" fill="url(#globeGradient)"/>
  
  <!-- Globe lines - horizontal -->
  <ellipse cx="256" cy="256" rx="200" ry="200" fill="none" stroke="rgba(255,255,255,0.3)" stroke-width="3"/>
  <ellipse cx="256" cy="256" rx="200" ry="80" fill="none" stroke="rgba(255,255,255,0.25)" stroke-width="2"/>
  <ellipse cx="256" cy="256" rx="200" ry="140" fill="none" stroke="rgba(255,255,255,0.2)" stroke-width="2"/>
  
  <!-- Globe lines - vertical -->
  <ellipse cx="256" cy="256" rx="80" ry="200" fill="none" stroke="rgba(255,255,255,0.25)" stroke-width="2"/>
  <ellipse cx="256" cy="256" rx="140" ry="200" fill="none" stroke="rgba(255,255,255,0.2)" stroke-width="2"/>
  
  <!-- Meridian line -->
  <line x1="256" y1="56" x2="256" y2="456" stroke="rgba(255,255,255,0.3)" stroke-width="2"/>
  <line x1="56" y1="256" x2="456" y2="256" stroke="rgba(255,255,255,0.3)" stroke-width="2"/>
  
  <!-- Airplane -->
  <g transform="translate(256, 256) rotate(-30)">
    <path d="M-80,0 L-40,-15 L60,-15 L100,-60 L115,-60 L90,-15 L120,-15 L130,-30 L145,-30 L135,-5 L145,5 L135,30 L130,30 L120,15 L90,15 L115,60 L100,60 L60,15 L-40,15 L-80,0 Z" 
          fill="url(#planeGradient)" 
          stroke="white" 
          stroke-width="3"/>
    <!-- Plane windows -->
    <circle cx="20" cy="0" r="6" fill="white" opacity="0.9"/>
    <circle cx="40" cy="0" r="6" fill="white" opacity="0.9"/>
    <circle cx="60" cy="0" r="6" fill="white" opacity="0.9"/>
  </g>
  
  <!-- Subtle inner glow -->
  <circle cx="256" cy="256" r="235" fill="none" stroke="rgba(255,255,255,0.15)" stroke-width="10"/>
</svg>
