<svg xmlns="http://www.w3.org/2000/svg" viewBox="0 0 512 512">
  <defs>
    <linearGradient id="bgGradient" x1="0%" y1="0%" x2="100%" y2="100%">
      <stop offset="0%" style="stop-color:#0c8ee6;stop-opacity:1" />
      <stop offset="100%" style="stop-color:#015a9f;stop-opacity:1" />
    </linearGradient>
    <linearGradient id="accentGradient" x1="0%" y1="0%" x2="100%" y2="100%">
      <stop offset="0%" style="stop-color:#eb6b42;stop-opacity:1" />
      <stop offset="100%" style="stop-color:#d84f28;stop-opacity:1" />
    </linearGradient>
  </defs>
  
  <!-- Background circle -->
  <circle cx="256" cy="256" r="240" fill="url(#bgGradient)"/>
  
  <!-- Globe lines (simplified) -->
  <ellipse cx="256" cy="256" rx="160" ry="160" fill="none" stroke="rgba(255,255,255,0.15)" stroke-width="3"/>
  <ellipse cx="256" cy="256" rx="80" ry="160" fill="none" stroke="rgba(255,255,255,0.15)" stroke-width="3"/>
  <line x1="96" y1="256" x2="416" y2="256" stroke="rgba(255,255,255,0.15)" stroke-width="3"/>
  <ellipse cx="256" cy="256" rx="160" ry="60" fill="none" stroke="rgba(255,255,255,0.15)" stroke-width="3"/>
  
  <!-- Airplane icon -->
  <g transform="translate(256, 256) rotate(-30)">
    <path d="M-20,-100 L20,-100 L30,-40 L90,-20 L90,10 L30,0 L20,80 L40,100 L40,115 L0,95 L-40,115 L-40,100 L-20,80 L-30,0 L-90,10 L-90,-20 L-30,-40 Z" 
          fill="white" 
          stroke="none"/>
  </g>
  
  <!-- Location pin accent -->
  <g transform="translate(340, 340)">
    <path d="M0,-45 C-25,-45 -45,-25 -45,0 C-45,25 0,55 0,55 C0,55 45,25 45,0 C45,-25 25,-45 0,-45 Z" 
          fill="url(#accentGradient)"/>
    <circle cx="0" cy="0" r="15" fill="white"/>
  </g>
</svg>
