<svg xmlns="http://www.w3.org/2000/svg" viewBox="0 0 512 512">
  <defs>
    <linearGradient id="bgGrad" x1="0%" y1="0%" x2="100%" y2="100%">
      <stop offset="0%" style="stop-color:#0c8ee6"/>
      <stop offset="100%" style="stop-color:#015a9f"/>
    </linearGradient>
    <linearGradient id="planeGrad" x1="0%" y1="0%" x2="100%" y2="100%">
      <stop offset="0%" style="stop-color:#ffffff"/>
      <stop offset="100%" style="stop-color:#e0effe"/>
    </linearGradient>
  </defs>
  <!-- Background circle -->
  <circle cx="256" cy="256" r="240" fill="url(#bgGrad)"/>
  <!-- Airplane icon -->
  <g transform="translate(256, 256) rotate(-45) translate(-256, -256)">
    <path d="M432 256c0-17.7-14.3-32-32-32h-80l-96-128h-48l48 128h-96l-32-48h-48l32 80-32 80h48l32-48h96l-48 128h48l96-128h80c17.7 0 32-14.3 32-32z" 
          fill="url(#planeGrad)" 
          transform="translate(40, 0)"/>
  </g>
  <!-- Globe accent lines -->
  <ellipse cx="256" cy="256" rx="180" ry="60" fill="none" stroke="#ffffff" stroke-width="3" opacity="0.3" transform="rotate(-20, 256, 256)"/>
  <ellipse cx="256" cy="256" rx="140" ry="45" fill="none" stroke="#ffffff" stroke-width="2" opacity="0.2" transform="rotate(25, 256, 256)"/>
</svg>
